<svg width="616" height="364" viewBox="0 0 616 364" fill="none" xmlns="http://www.w3.org/2000/svg">
<path d="M168.602 357.867C147.609 361.346 126.368 363.56 105.042 363.627C94.388 363.627 83.7171 363.061 73.1294 361.663C67.8355 360.947 62.575 359.981 57.3644 358.799C52.1537 357.551 47.0097 356.036 41.9822 354.155C31.9606 350.392 22.3551 344.915 14.7639 337.125C10.9849 333.229 7.772 328.751 5.39143 323.857C4.75883 322.641 4.3593 321.343 3.84323 320.078C3.39375 318.796 2.74452 317.564 2.46151 316.232L1.49596 312.27C1.34614 311.604 1.12972 310.955 1.04648 310.272L0.813418 308.241C-0.584956 297.421 1.16301 286.467 4.50912 276.245C7.87188 265.991 12.7662 256.352 18.343 247.196C21.0732 242.568 24.1863 238.206 27.2327 233.795C30.4456 229.516 33.6253 225.188 37.0713 221.109C40.3841 216.898 44.0465 213.002 47.5591 208.957L53.0693 203.13C54.9006 201.183 56.7484 199.251 58.6628 197.387C73.7953 182.288 89.9431 168.271 106.873 155.253C140.701 129.2 177.042 106.576 214.748 86.6323C252.538 66.8387 291.675 49.6587 331.945 35.5417C352.072 28.4999 372.498 22.2572 393.174 16.98C413.85 11.6861 434.792 7.44107 455.934 4.52779C461.212 3.72872 466.539 3.26259 471.833 2.5967C477.16 2.18052 482.47 1.56456 487.797 1.34815C498.452 0.615668 509.156 0.599021 519.827 0.931967C530.514 1.3648 541.169 2.51346 551.69 4.54443C562.178 6.6087 572.582 9.63851 582.204 14.4662C591.777 19.2773 600.6 26.0861 606.676 35.0423C612.935 43.9153 615.466 54.9692 615.183 65.6234C614.833 76.3776 611.803 86.7988 607.658 96.6041C603.396 106.376 598.019 115.615 591.993 124.388C597.886 115.532 603.13 106.226 607.225 96.421C611.221 86.5991 614.051 76.1945 614.234 65.6068C614.35 55.1023 611.703 44.3815 605.494 35.858C599.451 27.2514 590.794 20.7589 581.355 16.1809C571.883 11.5696 561.645 8.63967 551.274 6.70858C540.886 4.79414 530.331 3.72872 519.744 3.39577C509.156 3.16271 498.552 3.24594 487.981 4.07831C482.687 4.34467 477.426 5.01056 472.132 5.46003C466.872 6.15922 461.595 6.67529 456.351 7.50766C414.366 13.767 373.164 24.7709 333.127 38.8878C293.09 53.0381 254.136 70.2847 216.579 90.0783C179.006 109.822 142.765 132.263 109.054 158.066C92.1905 170.951 76.1092 184.835 61.0767 199.768C59.1623 201.599 57.3311 203.513 55.5165 205.444L50.0562 211.204C46.5602 215.183 42.9478 219.062 39.635 223.174C36.189 227.186 33.026 231.431 29.8131 235.626C26.7832 239.937 23.6702 244.232 20.9567 248.744C15.3965 257.7 10.5188 267.123 7.17269 277.078C3.82658 286.999 2.06197 297.554 3.32717 307.908L3.52694 309.856C3.59353 310.505 3.80994 311.121 3.92647 311.754L4.82543 315.55C5.07514 316.831 5.69108 317.997 6.10727 319.212C6.59004 320.411 6.97293 321.676 7.55559 322.824C9.78633 327.519 12.8161 331.814 16.412 335.576C23.6369 343.134 32.9427 348.528 42.748 352.357C47.659 354.288 52.7031 355.853 57.8305 357.168C62.9745 358.416 68.1685 359.449 73.4124 360.248C83.9002 361.796 94.5212 362.528 105.142 362.678C126.401 362.928 147.659 361.03 168.685 357.867H168.602Z" fill="url(#paint0_linear_2297_3321)"/>
<mask id="mask0_2297_3321" style="mask-type:luminance" maskUnits="userSpaceOnUse" x="0" y="0" width="616" height="364">
<path d="M168.602 357.866C147.609 361.345 126.368 363.559 105.042 363.626C94.388 363.626 83.7171 363.06 73.1294 361.662C67.8355 360.946 62.575 359.98 57.3644 358.798C52.1537 357.55 47.0097 356.035 41.9822 354.154C31.9606 350.391 22.3551 344.914 14.7639 337.124C10.9849 333.228 7.772 328.75 5.39143 323.856C4.75883 322.64 4.3593 321.342 3.84323 320.077C3.39375 318.795 2.74452 317.563 2.46151 316.231L1.49596 312.269C1.34614 311.603 1.12972 310.954 1.04648 310.271L0.813418 308.24C-0.584956 297.42 1.16301 286.466 4.50912 276.244C7.87188 265.99 12.7662 256.351 18.343 247.195C21.0732 242.567 24.1863 238.205 27.2327 233.794C30.4456 229.515 33.6253 225.187 37.0713 221.108C40.3841 216.897 44.0465 213.001 47.5591 208.956L53.0693 203.129C54.9006 201.182 56.7484 199.25 58.6628 197.386C73.7953 182.287 89.9431 168.27 106.873 155.252C140.701 129.199 177.042 106.575 214.748 86.6314C252.538 66.8377 291.675 49.6577 331.945 35.5408C352.072 28.4989 372.498 22.2562 393.174 16.979C413.85 11.6852 434.792 7.44009 455.934 4.52681C461.212 3.72774 466.539 3.26161 471.833 2.59572C477.16 2.17954 482.47 1.56359 487.797 1.34717C498.452 0.614691 509.156 0.598044 519.827 0.93099C530.514 1.36382 541.169 2.51248 551.69 4.54346C562.178 6.60772 572.582 9.63753 582.204 14.4653C591.777 19.2763 600.6 26.0851 606.676 35.0413C612.935 43.9144 615.466 54.9682 615.183 65.6225C614.833 76.3766 611.803 86.7978 607.658 96.6031C603.396 106.375 598.019 115.614 591.993 124.387C597.886 115.531 603.13 106.225 607.225 96.42C611.221 86.5981 614.051 76.1935 614.234 65.6058C614.35 55.1014 611.703 44.3805 605.494 35.8571C599.451 27.2504 590.794 20.7579 581.355 16.1799C571.883 11.5686 561.645 8.63869 551.274 6.70761C540.886 4.79316 530.331 3.72774 519.744 3.39479C509.156 3.16173 498.552 3.24497 487.981 4.07733C482.687 4.34369 477.426 5.00958 472.132 5.45906C466.872 6.15824 461.595 6.67432 456.351 7.50668C414.366 13.7661 373.164 24.7699 333.127 38.8869C293.09 53.0371 254.136 70.2837 216.579 90.0774C179.006 109.821 142.765 132.262 109.054 158.065C92.1905 170.95 76.1092 184.834 61.0767 199.767C59.1623 201.598 57.3311 203.512 55.5165 205.443L50.0562 211.203C46.5602 215.182 42.9478 219.061 39.635 223.173C36.189 227.185 33.026 231.43 29.8131 235.625C26.7832 239.937 23.6702 244.232 20.9567 248.743C15.3965 257.699 10.5188 267.122 7.17269 277.077C3.82658 286.998 2.06197 297.553 3.32717 307.908L3.52694 309.855C3.59353 310.504 3.80994 311.12 3.92647 311.753L4.82543 315.549C5.07514 316.83 5.69108 317.996 6.10727 319.211C6.59004 320.41 6.97293 321.675 7.55559 322.823C9.78633 327.518 12.8161 331.813 16.412 335.575C23.6369 343.133 32.9427 348.527 42.748 352.356C47.659 354.287 52.7031 355.852 57.8305 357.167C62.9745 358.415 68.1685 359.448 73.4124 360.247C83.9002 361.795 94.5212 362.527 105.142 362.677C126.401 362.927 147.659 361.029 168.685 357.866H168.602Z" fill="white"/>
</mask>
<g mask="url(#mask0_2297_3321)">
<path d="M615.432 49.3086L592.842 0.631836H615.432V49.3086Z" fill="url(#paint1_linear_2297_3321)"/>
<path d="M615.432 154.753L351.955 277.061L252.404 62.5931L385.882 0.631836H592.842L615.432 49.3086V154.753Z" fill="url(#paint2_linear_2297_3321)"/>
<path d="M351.955 277.06L165.422 363.643H22.9543L-0.601685 312.902V180.04L252.404 62.5928L351.955 277.06Z" fill="url(#paint3_linear_2297_3321)"/>
<path d="M-0.601685 312.901L22.9543 363.642H-0.601685V312.901Z" fill="url(#paint4_linear_2297_3321)"/>
</g>
<defs>
<linearGradient id="paint0_linear_2297_3321" x1="0.328735" y1="182.175" x2="615.204" y2="182.175" gradientUnits="userSpaceOnUse">
<stop stop-color="#46D3B0"/>
<stop offset="1" stop-color="#1B3DF0"/>
</linearGradient>
<linearGradient id="paint1_linear_2297_3321" x1="592.842" y1="24.9702" x2="615.432" y2="24.9702" gradientUnits="userSpaceOnUse">
<stop stop-color="#46D3B0"/>
<stop offset="1" stop-color="#1B3DF0"/>
</linearGradient>
<linearGradient id="paint2_linear_2297_3321" x1="252.404" y1="138.846" x2="615.432" y2="138.846" gradientUnits="userSpaceOnUse">
<stop stop-color="#46D3B0"/>
<stop offset="1" stop-color="#1B3DF0"/>
</linearGradient>
<linearGradient id="paint3_linear_2297_3321" x1="-0.601685" y1="213.118" x2="351.955" y2="213.118" gradientUnits="userSpaceOnUse">
<stop stop-color="#46D3B0"/>
<stop offset="1" stop-color="#1B3DF0"/>
</linearGradient>
<linearGradient id="paint4_linear_2297_3321" x1="-0.601685" y1="338.272" x2="22.9543" y2="338.272" gradientUnits="userSpaceOnUse">
<stop stop-color="#46D3B0"/>
<stop offset="1" stop-color="#1B3DF0"/>
</linearGradient>
</defs>
</svg>
