<svg width="335" height="432" viewBox="0 0 335 432" fill="none" xmlns="http://www.w3.org/2000/svg">
<g opacity="0.05">
<path d="M62.1328 410.17C47.1503 410.17 33.7991 399.516 30.9191 384.267L5.86491 250.989C2.61868 233.775 14.0055 217.128 31.2188 213.898L240.875 174.477C249.215 172.913 257.672 174.677 264.664 179.472C271.673 184.266 276.384 191.491 277.965 199.831L303.02 333.11C304.584 341.45 302.82 349.907 298.025 356.899C293.231 363.907 286.006 368.618 277.666 370.2L68.0093 409.621C66.0283 409.987 64.0639 410.17 62.1328 410.17ZM246.802 175.876C244.954 175.876 243.089 176.042 241.225 176.392L31.5684 215.813C15.4038 218.859 4.73291 234.474 7.77937 250.622L32.8336 383.901C34.2986 391.725 38.7434 398.517 45.3191 403.012C51.8948 407.507 59.8189 409.171 67.6598 407.69L277.316 368.269C285.14 366.804 291.932 362.359 296.427 355.783C300.922 349.208 302.587 341.284 301.105 333.443L276.051 200.164C274.586 192.34 270.141 185.548 263.565 181.053C258.555 177.624 252.745 175.843 246.802 175.843V175.876Z" fill="url(#paint0_linear_2297_3337)"/>
</g>
<g opacity="0.15">
<path d="M66.5443 413.234C60.2183 413.234 54.0255 411.336 48.6817 407.69C41.6732 402.896 36.962 395.671 35.3805 387.33L10.3263 254.052C8.76146 245.712 10.5261 237.255 15.3205 230.263C20.1149 223.254 27.3399 218.543 35.6802 216.962L245.336 177.541C253.677 175.976 262.134 177.741 269.126 182.535C276.134 187.33 280.845 194.554 282.427 202.895L307.481 336.173C309.046 344.514 307.281 352.97 302.487 359.962C297.692 366.971 290.467 371.682 282.127 373.263L72.4707 412.684C70.4897 413.05 68.5087 413.234 66.5276 413.234H66.5443ZM251.28 178.939C249.432 178.939 247.567 179.106 245.703 179.455L36.0464 218.876C28.2222 220.341 21.4301 224.786 16.9353 231.362C12.4405 237.937 10.7758 245.861 12.2574 253.702L37.3116 386.981C38.7766 394.805 43.2214 401.597 49.7971 406.092C56.3728 410.587 64.2969 412.251 72.1378 410.77L281.794 371.349C289.618 369.884 296.41 365.439 300.905 358.864C305.4 352.288 307.065 344.364 305.583 336.523L280.529 203.244C279.064 195.42 274.619 188.628 268.043 184.133C263.033 180.704 257.223 178.923 251.28 178.923V178.939Z" fill="url(#paint1_linear_2297_3337)"/>
</g>
<g opacity="0.38">
<path d="M71.0725 416.28C56.1066 416.28 42.7222 405.626 39.8588 390.377L14.8046 257.098C11.5584 239.885 22.9451 223.238 40.1585 220.008L249.815 180.587C267.028 177.358 283.675 188.728 286.905 205.941L311.959 339.22C313.524 347.56 311.759 356.017 306.965 363.009C302.171 370.017 294.946 374.728 286.605 376.31L76.949 415.731C74.968 416.097 73.0036 416.28 71.0725 416.28ZM255.691 181.986C253.877 181.986 252.029 182.152 250.164 182.502L40.5081 221.923C24.3435 224.969 13.6726 240.584 16.719 256.732L41.7733 390.011C44.8197 406.175 60.4349 416.846 76.5828 413.8L286.239 374.379C294.063 372.914 300.855 368.469 305.35 361.893C309.845 355.318 311.51 347.393 310.028 339.553L284.974 206.274C282.277 191.974 269.742 181.969 255.675 181.969L255.691 181.986Z" fill="url(#paint2_linear_2297_3337)"/>
</g>
<g opacity="0.5">
<path d="M75.4839 419.344C69.1579 419.344 62.9651 417.446 57.6213 413.8C50.6128 409.006 45.9016 401.781 44.3201 393.441L19.2659 260.162C16.0197 242.949 27.4064 226.302 44.6198 223.072L254.276 183.651C262.616 182.086 271.073 183.851 278.065 188.645C285.074 193.44 289.785 200.665 291.366 209.005L316.421 342.284C319.667 359.497 308.28 376.144 291.067 379.374L81.4104 418.795C79.4293 419.161 77.4483 419.344 75.4673 419.344H75.4839ZM260.203 185.033C258.355 185.033 256.49 185.199 254.626 185.549L44.9694 224.97C28.8048 228.016 18.1339 243.632 21.1804 259.779L46.2346 393.058C47.6995 400.882 52.1444 407.674 58.72 412.169C65.2957 416.664 73.2199 418.328 81.0608 416.847L290.717 377.426C306.882 374.38 317.553 358.764 314.506 342.616L289.452 209.338C287.987 201.514 283.542 194.722 276.966 190.227C271.956 186.798 266.146 185.016 260.203 185.016V185.033Z" fill="url(#paint3_linear_2297_3337)"/>
</g>
<g opacity="0.62">
<path d="M80.0121 422.39C65.0295 422.39 51.6784 411.736 48.7984 396.487L23.7442 263.208C22.1793 254.868 23.9439 246.411 28.7384 239.419C33.5328 232.411 40.7577 227.7 49.098 226.118L258.754 186.697C267.095 185.132 275.551 186.897 282.543 191.691C289.552 196.486 294.263 203.711 295.845 212.051L320.899 345.329C322.464 353.67 320.699 362.127 315.905 369.118C311.11 376.127 303.885 380.838 295.545 382.42L85.8886 421.841C83.9076 422.207 81.9432 422.39 80.0121 422.39ZM264.681 188.096C262.833 188.096 260.968 188.262 259.104 188.612L49.4476 228.032C33.2831 231.079 22.6121 246.694 25.6586 262.842L50.7128 396.12C52.1778 403.945 56.6226 410.737 63.1983 415.232C69.774 419.726 77.6981 421.391 85.539 419.909L295.195 380.489C303.02 379.024 309.812 374.579 314.306 368.003C318.801 361.427 320.466 353.503 318.984 345.662L293.93 212.384C292.465 204.56 288.02 197.768 281.445 193.273C276.434 189.844 270.624 188.062 264.681 188.062V188.096Z" fill="url(#paint4_linear_2297_3337)"/>
</g>
<g opacity="0.75">
<path d="M84.4736 425.436C69.5077 425.436 56.1232 414.781 53.2599 399.533L28.2057 266.254C26.6409 257.914 28.4055 249.457 33.1999 242.465C37.9943 235.457 45.2193 230.745 53.5596 229.164L263.216 189.743C271.556 188.178 280.013 189.943 287.005 194.737C294.013 199.532 298.725 206.757 300.306 215.097L325.377 348.375C328.606 365.589 317.236 382.236 300.023 385.466L90.3668 424.886C88.3857 425.253 86.4214 425.436 84.4903 425.436H84.4736ZM269.142 191.141C267.294 191.141 265.43 191.308 263.565 191.658L53.9091 231.078C46.0849 232.543 39.2928 236.988 34.798 243.564C30.3033 250.14 28.6385 258.064 30.1201 265.905L55.1744 399.183C58.2208 415.348 73.8193 426.018 89.9839 422.972L299.64 383.551C315.805 380.505 326.476 364.889 323.429 348.742L298.358 215.463C296.893 207.639 292.449 200.847 285.873 196.352C280.862 192.923 275.052 191.141 269.109 191.141H269.142Z" fill="url(#paint5_linear_2297_3337)"/>
</g>
<g opacity="0.88">
<path d="M88.9351 428.483C73.9525 428.483 60.6014 417.829 57.7214 402.58L32.6672 269.302C29.4209 252.088 40.8077 235.441 58.021 232.211L267.677 192.79C284.891 189.561 301.538 200.931 304.768 218.144L329.822 351.423C333.068 368.636 321.681 385.283 304.468 388.513L94.8116 427.934C92.8306 428.3 90.8662 428.483 88.9351 428.483ZM273.554 194.206C271.739 194.206 269.891 194.372 268.027 194.722L58.3706 234.142C42.2061 237.189 31.5351 252.804 34.5816 268.952L59.6358 402.23C61.1008 410.055 65.5456 416.847 72.1213 421.342C78.697 425.836 86.6211 427.501 94.462 426.019L304.118 386.599C320.283 383.552 330.954 367.937 327.907 351.789L302.853 218.511C300.156 204.211 287.621 194.206 273.554 194.206Z" fill="url(#paint6_linear_2297_3337)"/>
</g>
<path d="M93.3965 431.546C78.414 431.546 65.0462 420.892 62.1828 405.643L37.1286 272.364C33.899 255.151 45.2692 238.504 62.4825 235.274L272.139 195.853C280.479 194.289 288.936 196.053 295.928 200.848C302.936 205.642 307.648 212.867 309.229 221.207L334.3 354.486C337.529 371.699 326.159 388.346 308.946 391.576L99.2897 430.997C97.3086 431.363 95.3443 431.546 93.4132 431.546H93.3965ZM278.065 197.252C276.217 197.252 274.353 197.418 272.488 197.768L62.8321 237.189C46.6675 240.235 35.9966 255.85 39.0431 271.998L64.0973 405.277C67.1437 421.441 82.7589 432.095 98.9068 429.066L308.563 389.645C324.728 386.615 335.399 370.983 332.352 354.835L307.281 221.557C305.816 213.733 301.371 206.941 294.796 202.446C289.785 199.016 283.975 197.235 278.032 197.235L278.065 197.252Z" fill="url(#paint7_linear_2297_3337)"/>
<path d="M93.3967 431.546C78.4141 431.546 65.0463 420.892 62.1829 405.643L37.1287 272.364C33.8992 255.151 45.2693 238.504 62.4826 235.274L272.139 195.853C280.479 194.289 288.936 196.053 295.928 200.848C302.936 205.642 307.648 212.867 309.229 221.207L334.3 354.486C337.53 371.699 326.159 388.346 308.946 391.576L99.2898 430.997C97.3088 431.363 95.3444 431.546 93.4133 431.546H93.3967Z" fill="url(#paint8_linear_2297_3337)"/>
<path d="M193.663 307.24L203.918 339.852L178.581 344.614L176.284 310.487C171.939 308.489 168.609 304.494 167.66 299.433C166.096 291.126 171.556 283.152 179.846 281.587C188.153 280.022 196.127 285.482 197.692 293.773C198.641 298.817 196.976 303.761 193.663 307.207V307.24Z" fill="#0F111A"/>
<path d="M160.102 337.606V337.339L157.805 303.362C153.31 301.248 150.097 297.086 149.182 292.192C148.416 288.113 149.282 283.985 151.612 280.555C153.943 277.126 157.489 274.829 161.551 274.063C169.974 272.481 178.098 278.041 179.68 286.448C180.595 291.326 179.097 296.387 175.684 299.999L185.972 332.745L185.706 332.794L160.102 337.606ZM164.431 274.279C163.515 274.279 162.583 274.362 161.651 274.546C157.705 275.295 154.293 277.525 152.029 280.838C149.764 284.151 148.932 288.146 149.665 292.108C150.564 296.886 153.727 300.948 158.155 302.979L158.288 303.046V303.196L160.569 337.04L185.373 332.378L175.152 299.883L175.252 299.783C178.631 296.27 180.113 291.326 179.214 286.565C177.865 279.357 171.523 274.312 164.447 274.312L164.431 274.279Z" fill="#DCE4FE"/>
<path d="M51.3455 231.961C49.3146 232.344 47.3502 230.996 46.9673 228.965L28.1392 128.848C17.0854 70.0827 55.9069 13.2654 114.689 2.21156C143.155 -3.14888 172.005 2.91074 195.927 19.2584C219.85 35.6061 235.964 60.294 241.325 88.761L260.153 188.878C260.536 190.909 259.187 192.873 257.156 193.256L233.85 197.634C231.819 198.017 229.855 196.669 229.472 194.638L210.644 94.5209C206.831 74.2445 195.345 56.6649 178.315 45.0285C162.2 34.0079 142.939 29.5631 123.745 32.3432C79.8624 38.6858 50.8961 81.0033 59.0865 124.569L77.6316 223.205C78.0145 225.236 76.6661 227.2 74.6351 227.583L51.3289 231.961H51.3455Z" fill="url(#paint9_linear_2297_3337)"/>
<path d="M57.6215 419.726C51.4287 419.726 45.3857 417.879 40.1751 414.299C33.333 409.622 28.7218 402.563 27.1902 394.406L2.11933 261.144C-0.893839 245.146 9.04463 229.498 24.743 225.402L6.61412 128.914C-4.45634 70.0163 34.4651 13.0825 93.3633 1.99535C121.88 -3.38173 150.797 2.69454 174.785 19.0755C198.741 35.4565 214.905 60.1944 220.282 88.7279L238.411 185.166C254.676 183.102 269.742 194.072 272.788 210.22L297.859 343.515C299.39 351.656 297.659 359.913 292.981 366.755C288.303 373.597 281.228 378.225 273.088 379.756L63.4314 419.177C61.5003 419.543 59.5526 419.726 57.6381 419.726H57.6215ZM113.673 0.563682C106.964 0.563682 100.189 1.19628 93.4465 2.46148C34.8147 13.4986 -3.92364 70.1828 7.09688 128.815L25.3257 225.752L25.1093 225.802C9.5274 229.747 -0.344472 245.229 2.61875 261.044L27.6896 394.306C29.2045 402.33 33.7326 409.289 40.4748 413.883C47.2169 418.495 55.3408 420.193 63.3648 418.694L273.021 379.273C281.045 377.759 287.987 373.23 292.598 366.488C297.21 359.746 298.908 351.622 297.409 343.615L272.339 210.32C269.325 194.338 254.359 183.518 238.278 185.682L238.045 185.715L237.995 185.482L219.816 88.8111C214.473 60.3941 198.375 35.7728 174.536 19.4584C156.323 7.02284 135.248 0.547038 113.706 0.547038L113.673 0.563682ZM55.4906 220.025L55.4407 219.792L37.5615 124.619C33.5661 103.344 38.4438 81.0867 50.9792 63.5571C63.3149 46.2939 81.5936 35.1235 102.419 32.1103C121.664 29.3302 141.108 33.8583 157.172 44.8455C174.269 56.532 185.789 74.1615 189.601 94.4878L207.797 191.359L207.564 191.409L55.5073 220.025H55.4906ZM113.507 31.794C109.844 31.794 106.165 32.0604 102.486 32.5931C81.7934 35.5896 63.6312 46.6934 51.3788 63.8401C38.9266 81.2532 34.0655 103.378 38.0442 124.52L55.8902 219.459L207.231 190.976L189.119 94.5877C185.323 74.3945 173.886 56.8816 156.906 45.2617C144.004 36.4387 128.922 31.8107 113.523 31.8107L113.507 31.794Z" fill="#DCE4FE"/>
<defs>
<linearGradient id="paint0_linear_2297_3337" x1="5.31213" y1="292.046" x2="303.575" y2="292.046" gradientUnits="userSpaceOnUse">
<stop stop-color="#46D3B0"/>
<stop offset="1" stop-color="#1B3DF0"/>
</linearGradient>
<linearGradient id="paint1_linear_2297_3337" x1="9.77075" y1="295.109" x2="308.036" y2="295.109" gradientUnits="userSpaceOnUse">
<stop stop-color="#46D3B0"/>
<stop offset="1" stop-color="#1B3DF0"/>
</linearGradient>
<linearGradient id="paint2_linear_2297_3337" x1="14.2518" y1="298.16" x2="312.515" y2="298.16" gradientUnits="userSpaceOnUse">
<stop stop-color="#46D3B0"/>
<stop offset="1" stop-color="#1B3DF0"/>
</linearGradient>
<linearGradient id="paint3_linear_2297_3337" x1="18.7131" y1="301.22" x2="316.973" y2="301.22" gradientUnits="userSpaceOnUse">
<stop stop-color="#46D3B0"/>
<stop offset="1" stop-color="#1B3DF0"/>
</linearGradient>
<linearGradient id="paint4_linear_2297_3337" x1="23.1886" y1="304.266" x2="321.454" y2="304.266" gradientUnits="userSpaceOnUse">
<stop stop-color="#46D3B0"/>
<stop offset="1" stop-color="#1B3DF0"/>
</linearGradient>
<linearGradient id="paint5_linear_2297_3337" x1="27.6501" y1="307.312" x2="325.925" y2="307.312" gradientUnits="userSpaceOnUse">
<stop stop-color="#46D3B0"/>
<stop offset="1" stop-color="#1B3DF0"/>
</linearGradient>
<linearGradient id="paint6_linear_2297_3337" x1="32.1144" y1="310.363" x2="330.375" y2="310.363" gradientUnits="userSpaceOnUse">
<stop stop-color="#46D3B0"/>
<stop offset="1" stop-color="#1B3DF0"/>
</linearGradient>
<linearGradient id="paint7_linear_2297_3337" x1="36.5803" y1="313.422" x2="334.848" y2="313.422" gradientUnits="userSpaceOnUse">
<stop stop-color="#46D3B0"/>
<stop offset="1" stop-color="#1B3DF0"/>
</linearGradient>
<linearGradient id="paint8_linear_2297_3337" x1="36.5804" y1="313.422" x2="334.848" y2="313.422" gradientUnits="userSpaceOnUse">
<stop stop-color="#46D3B0"/>
<stop offset="1" stop-color="#1B3DF0"/>
</linearGradient>
<linearGradient id="paint9_linear_2297_3337" x1="26.2589" y1="116.168" x2="260.218" y2="116.168" gradientUnits="userSpaceOnUse">
<stop stop-color="#46D3B0"/>
<stop offset="1" stop-color="#1B3DF0"/>
</linearGradient>
</defs>
</svg>
