<svg width="27" height="27" viewBox="0 0 27 27" fill="none" xmlns="http://www.w3.org/2000/svg">
<path d="M0.595155 0.294922C1.61064 2.54231 3.25871 4.39016 5.20644 5.75524C7.12088 7.17026 9.38492 8.05256 11.6822 8.55198C13.9962 9.10134 16.3935 9.21787 18.774 9.20122C19.9726 9.11798 21.1712 9.08469 22.3532 8.96816L25.9323 8.46873L26.3985 10.3499C24.2843 11.0324 22.1534 11.9147 20.0891 12.847C18.0249 13.7792 16.0272 14.8613 14.1294 16.0766C12.2483 17.3085 10.467 18.7401 9.15187 20.5214C7.78679 22.2694 7.07094 24.5334 7.47048 26.8474C6.63811 24.6499 7.15419 22.053 8.38609 20.022C9.63464 17.9577 11.4325 16.3263 13.2804 14.8946C15.1449 13.4463 17.2092 12.281 19.2901 11.2156C21.3876 10.1668 23.5352 9.28446 25.7992 8.50204L26.2653 10.3832L22.5529 10.8826C21.3044 10.9825 20.0392 11.0158 18.7907 11.0824C16.2769 10.9658 13.7299 10.8327 11.2994 10.0336C8.86886 9.31775 6.52159 8.18573 4.5905 6.521C2.726 4.82298 1.16115 2.70878 0.578491 0.294922H0.595155Z" fill="url(#paint0_linear_2297_3331)"/>
<defs>
<linearGradient id="paint0_linear_2297_3331" x1="0.578491" y1="13.5711" x2="26.3985" y2="13.5711" gradientUnits="userSpaceOnUse">
<stop stop-color="#46D3B0"/>
<stop offset="1" stop-color="#1B3DF0"/>
</linearGradient>
</defs>
</svg>
