<svg width="89" height="123" viewBox="0 0 89 123" fill="none" xmlns="http://www.w3.org/2000/svg">
<path d="M87.0712 27.3719V79.4613C87.0712 103.4 43.5718 122.977 43.5718 122.977C43.5718 122.977 0.0556641 103.384 0.0556641 79.4613V27.3719C2.93565 27.3386 5.86558 27.0556 8.79551 26.5062C21.0479 24.1756 31.3693 17.4834 38.461 8.34399C41.0414 5.03117 46.1022 5.03117 48.6658 8.34399C55.7576 17.4834 66.0623 24.1756 78.3147 26.5062C81.2613 27.0556 84.1746 27.3386 87.0546 27.3719H87.0712Z" fill="url(#paint0_linear_2297_3333)"/>
<path d="M44.7371 117.817L44.6372 117.768C44.2044 117.568 0.971313 97.8407 0.971313 74.035V21.6959H1.20435C4.11763 21.6626 7.04758 21.3629 9.91091 20.8302C21.6473 18.5995 32.1184 12.1903 39.4266 2.75124C40.6918 1.10315 42.6229 0.170898 44.7205 0.170898C46.818 0.170898 48.7491 1.1198 50.0143 2.75124C57.3225 12.1736 67.7936 18.5995 79.5133 20.8302C82.3933 21.3629 85.3066 21.6626 88.2199 21.6959H88.4529V74.035C88.4529 97.8407 45.2365 117.584 44.8037 117.768L44.7038 117.817H44.7371ZM1.47071 22.1787V74.035C1.47071 96.975 42.4064 116.203 44.7371 117.285C47.0677 116.203 88.0035 96.975 88.0035 74.035V22.1787C85.1568 22.1287 82.2768 21.8457 79.4467 21.313C67.6105 19.0656 57.0228 12.5732 49.648 3.06754C48.4661 1.55263 46.6682 0.670323 44.7371 0.670323C42.7893 0.670323 41.0081 1.53599 39.8261 3.06754C32.4514 12.5898 21.8637 19.0656 10.0108 21.313C7.1974 21.8457 4.33405 22.1287 1.47071 22.1787Z" fill="#DCE4FE"/>
<path d="M42.6394 76.9155L30.2871 64.5798L33.0506 61.8164L42.6394 71.4052L60.7184 53.3096L63.4819 56.0564L42.6394 76.9155Z" fill="#DCE4FE"/>
<defs>
<linearGradient id="paint0_linear_2297_3333" x1="0.0556641" y1="64.4184" x2="87.0712" y2="64.4184" gradientUnits="userSpaceOnUse">
<stop stop-color="#46D3B0"/>
<stop offset="1" stop-color="#1B3DF0"/>
</linearGradient>
</defs>
</svg>
