<svg width="19" height="18" viewBox="0 0 19 18" fill="none" xmlns="http://www.w3.org/2000/svg">
<mask id="mask0_773_24777" style="mask-type:luminance" maskUnits="userSpaceOnUse" x="0" y="0" width="19" height="18">
<rect x="0.5" width="18" height="18" fill="white"/>
</mask>
<g mask="url(#mask0_773_24777)">
<path fill-rule="evenodd" clip-rule="evenodd" d="M11.6881 0C12.8941 0 13.4971 0.8208 13.4971 1.7613C13.4971 2.9358 12.4495 4.0221 11.086 4.0221C9.94392 4.0221 9.27792 3.3471 9.30942 2.2311C9.30942 1.2924 10.1023 0 11.6881 0ZM7.97747 17.9999C7.02527 17.9999 6.32777 17.4131 6.99378 14.8283L8.08638 10.2455C8.27628 9.51295 8.30778 9.21865 8.08638 9.21865C7.80107 9.21865 6.56628 9.72445 5.83458 10.2239L5.35938 9.43195C7.67418 7.46455 10.3373 6.31165 11.4803 6.31165C12.4316 6.31165 12.59 7.45735 12.1148 9.21865L10.8629 14.0354C10.6415 14.8859 10.736 15.1793 10.9583 15.1793C11.2436 15.1793 12.1796 14.8265 13.0994 14.093L13.6394 14.8256C11.3876 17.1179 8.92787 17.9999 7.97747 17.9999Z" fill="#DCE4FE"/>
</g>
</svg>
